<svg xmlns="http://www.w3.org/2000/svg" viewBox="0 0 575.76 74.54"><defs><style>.cls-1{fill:#d4145a;}</style></defs><title>Asset 1</title><g id="Layer_2" data-name="Layer 2"><g id="Layer_1-2" data-name="Layer 1"><rect class="cls-1" x="0.03" y="0.1" width="9.11" height="9.11"/><rect class="cls-1" x="0.04" y="10.99" width="9.11" height="9.11"/><rect class="cls-1" x="0.01" y="21.83" width="9.11" height="9.11"/><rect class="cls-1" x="0.01" y="32.75" width="9.11" height="9.11"/><rect class="cls-1" x="0.01" y="43.62" width="9.11" height="9.11"/><rect class="cls-1" x="0.01" y="54.5" width="9.11" height="9.11"/><rect class="cls-1" y="65.42" width="9.11" height="9.11"/><rect class="cls-1" x="10.98" y="0.09" width="9.11" height="9.11"/><rect class="cls-1" x="10.99" y="10.98" width="9.11" height="9.11"/><rect class="cls-1" x="10.96" y="21.82" width="9.11" height="9.11"/><rect class="cls-1" x="10.96" y="32.74" width="9.11" height="9.11"/><rect class="cls-1" x="10.96" y="43.61" width="9.11" height="9.11"/><rect class="cls-1" x="10.96" y="54.49" width="9.11" height="9.11"/><rect class="cls-1" x="10.95" y="65.41" width="9.11" height="9.11"/><rect class="cls-1" x="21.83" y="0.09" width="9.11" height="9.11"/><rect class="cls-1" x="21.85" y="10.98" width="9.11" height="9.11"/><rect class="cls-1" x="21.82" y="21.82" width="9.11" height="9.11"/><rect class="cls-1" x="21.82" y="32.74" width="9.11" height="9.11"/><rect class="cls-1" x="21.82" y="43.61" width="9.11" height="9.11"/><rect class="cls-1" x="21.82" y="54.49" width="9.11" height="9.11"/><rect class="cls-1" x="21.81" y="65.41" width="9.11" height="9.11"/><rect class="cls-1" x="32.78" y="0.08" width="9.11" height="9.11"/><rect class="cls-1" x="32.8" y="10.97" width="9.11" height="9.11"/><rect class="cls-1" x="32.77" y="21.81" width="9.11" height="9.11"/><rect class="cls-1" x="32.77" y="32.73" width="9.11" height="9.11"/><rect class="cls-1" x="32.77" y="43.6" width="9.11" height="9.11"/><rect class="cls-1" x="32.77" y="54.48" width="9.11" height="9.11"/><rect class="cls-1" x="32.76" y="65.41" width="9.11" height="9.11"/><rect class="cls-1" x="43.62" y="0.07" width="9.11" height="9.11"/><rect class="cls-1" x="43.63" y="10.97" width="9.11" height="9.11"/><rect class="cls-1" x="43.6" y="21.81" width="9.11" height="9.11"/><rect class="cls-1" x="43.6" y="32.73" width="9.11" height="9.11"/><rect class="cls-1" x="43.6" y="43.6" width="9.11" height="9.11"/><rect class="cls-1" x="43.6" y="54.47" width="9.11" height="9.11"/><rect class="cls-1" x="43.59" y="65.4" width="9.11" height="9.11"/><rect class="cls-1" x="54.57" y="0.07" width="9.11" height="9.11"/><rect class="cls-1" x="54.58" y="10.96" width="9.11" height="9.11"/><rect class="cls-1" x="54.55" y="21.8" width="9.11" height="9.11"/><rect class="cls-1" x="54.55" y="32.72" width="9.11" height="9.11"/><rect class="cls-1" x="54.55" y="43.59" width="9.11" height="9.11"/><rect class="cls-1" x="54.55" y="54.46" width="9.11" height="9.11"/><rect class="cls-1" x="54.54" y="65.39" width="9.11" height="9.11"/><rect class="cls-1" x="65.3" y="0.1" width="9.11" height="9.11"/><rect class="cls-1" x="65.31" y="10.99" width="9.11" height="9.11"/><rect class="cls-1" x="65.29" y="21.84" width="9.11" height="9.11"/><rect class="cls-1" x="65.29" y="32.76" width="9.11" height="9.11"/><rect class="cls-1" x="65.29" y="43.63" width="9.11" height="9.11"/><rect class="cls-1" x="65.29" y="54.5" width="9.11" height="9.11"/><rect class="cls-1" x="65.27" y="65.43" width="9.11" height="9.11"/><rect class="cls-1" x="76.25" y="0.09" width="9.11" height="9.11"/><rect class="cls-1" x="76.26" y="10.99" width="9.11" height="9.11"/><rect class="cls-1" x="76.23" y="21.83" width="9.11" height="9.11"/><rect class="cls-1" x="76.23" y="32.75" width="9.11" height="9.11"/><rect class="cls-1" x="76.23" y="43.62" width="9.11" height="9.11"/><rect class="cls-1" x="76.23" y="54.49" width="9.11" height="9.11"/><rect class="cls-1" x="76.22" y="65.42" width="9.11" height="9.11"/><rect class="cls-1" x="87.11" y="0.09" width="9.11" height="9.11"/><rect class="cls-1" x="87.12" y="10.99" width="9.11" height="9.11"/><rect class="cls-1" x="87.09" y="21.83" width="9.11" height="9.11"/><rect class="cls-1" x="87.09" y="32.75" width="9.11" height="9.11"/><rect class="cls-1" x="87.09" y="43.62" width="9.11" height="9.11"/><rect class="cls-1" x="87.09" y="54.49" width="9.11" height="9.11"/><rect class="cls-1" x="87.08" y="65.42" width="9.11" height="9.11"/><rect class="cls-1" x="98.05" y="0.09" width="9.11" height="9.11"/><rect class="cls-1" x="98.07" y="10.98" width="9.11" height="9.11"/><rect class="cls-1" x="98.04" y="21.82" width="9.11" height="9.11"/><rect class="cls-1" x="98.04" y="32.74" width="9.11" height="9.11"/><rect class="cls-1" x="98.04" y="43.61" width="9.11" height="9.11"/><rect class="cls-1" x="98.04" y="54.49" width="9.11" height="9.11"/><rect class="cls-1" x="98.03" y="65.41" width="9.11" height="9.11"/><rect class="cls-1" x="108.89" y="0.08" width="9.11" height="9.11"/><rect class="cls-1" x="108.9" y="10.97" width="9.11" height="9.11"/><rect class="cls-1" x="108.88" y="21.82" width="9.11" height="9.11"/><rect class="cls-1" x="108.88" y="32.74" width="9.11" height="9.11"/><rect class="cls-1" x="108.88" y="43.6" width="9.11" height="9.11"/><rect class="cls-1" x="108.88" y="54.48" width="9.11" height="9.11"/><rect class="cls-1" x="108.86" y="65.41" width="9.11" height="9.11"/><rect class="cls-1" x="119.84" y="0.07" width="9.11" height="9.11"/><rect class="cls-1" x="119.85" y="10.96" width="9.11" height="9.11"/><rect class="cls-1" x="119.82" y="21.81" width="9.11" height="9.11"/><rect class="cls-1" x="119.82" y="32.73" width="9.11" height="9.11"/><rect class="cls-1" x="119.82" y="43.59" width="9.11" height="9.11"/><rect class="cls-1" x="119.82" y="54.47" width="9.11" height="9.11"/><rect class="cls-1" x="119.81" y="65.4" width="9.11" height="9.11"/><rect class="cls-1" x="130.76" y="0.08" width="9.11" height="9.11"/><rect class="cls-1" x="130.77" y="10.97" width="9.11" height="9.11"/><rect class="cls-1" x="130.74" y="21.81" width="9.11" height="9.11"/><rect class="cls-1" x="130.74" y="32.73" width="9.11" height="9.11"/><rect class="cls-1" x="130.74" y="43.6" width="9.11" height="9.11"/><rect class="cls-1" x="130.74" y="54.48" width="9.11" height="9.11"/><rect class="cls-1" x="130.73" y="65.41" width="9.11" height="9.11"/><rect class="cls-1" x="141.7" y="0.07" width="9.11" height="9.11"/><rect class="cls-1" x="141.72" y="10.96" width="9.11" height="9.11"/><rect class="cls-1" x="141.69" y="21.81" width="9.11" height="9.11"/><rect class="cls-1" x="141.69" y="32.72" width="9.11" height="9.11"/><rect class="cls-1" x="141.69" y="43.59" width="9.11" height="9.11"/><rect class="cls-1" x="141.69" y="54.47" width="9.11" height="9.11"/><rect class="cls-1" x="141.68" y="65.4" width="9.11" height="9.11"/><rect class="cls-1" x="152.56" y="0.07" width="9.11" height="9.11"/><rect class="cls-1" x="152.58" y="10.96" width="9.11" height="9.11"/><rect class="cls-1" x="152.55" y="21.81" width="9.11" height="9.11"/><rect class="cls-1" x="152.55" y="32.72" width="9.11" height="9.11"/><rect class="cls-1" x="152.55" y="43.59" width="9.11" height="9.11"/><rect class="cls-1" x="152.55" y="54.47" width="9.11" height="9.11"/><rect class="cls-1" x="152.54" y="65.4" width="9.11" height="9.11"/><rect class="cls-1" x="163.51" y="0.06" width="9.11" height="9.11"/><rect class="cls-1" x="163.53" y="10.95" width="9.11" height="9.11"/><rect class="cls-1" x="163.5" y="21.8" width="9.11" height="9.11"/><rect class="cls-1" x="163.5" y="32.72" width="9.11" height="9.11"/><rect class="cls-1" x="163.5" y="43.58" width="9.11" height="9.11"/><rect class="cls-1" x="163.5" y="54.46" width="9.11" height="9.11"/><rect class="cls-1" x="163.48" y="65.39" width="9.11" height="9.11"/><rect class="cls-1" x="174.35" y="0.06" width="9.11" height="9.11"/><rect class="cls-1" x="174.36" y="10.95" width="9.11" height="9.11"/><rect class="cls-1" x="174.33" y="21.79" width="9.11" height="9.11"/><rect class="cls-1" x="174.33" y="32.71" width="9.11" height="9.11"/><rect class="cls-1" x="174.33" y="43.58" width="9.11" height="9.11"/><rect class="cls-1" x="174.33" y="54.46" width="9.11" height="9.11"/><rect class="cls-1" x="174.32" y="65.38" width="9.11" height="9.11"/><rect class="cls-1" x="185.29" y="0.05" width="9.11" height="9.11"/><rect class="cls-1" x="185.31" y="10.94" width="9.11" height="9.11"/><rect class="cls-1" x="185.28" y="21.78" width="9.11" height="9.11"/><rect class="cls-1" x="185.28" y="32.7" width="9.11" height="9.11"/><rect class="cls-1" x="185.28" y="43.57" width="9.11" height="9.11"/><rect class="cls-1" x="185.28" y="54.45" width="9.11" height="9.11"/><rect class="cls-1" x="185.27" y="65.37" width="9.11" height="9.11"/><rect class="cls-1" x="196.13" y="0.05" width="9.11" height="9.11"/><rect class="cls-1" x="196.14" y="10.94" width="9.11" height="9.11"/><rect class="cls-1" x="196.12" y="21.79" width="9.11" height="9.11"/><rect class="cls-1" x="196.12" y="32.71" width="9.11" height="9.11"/><rect class="cls-1" x="196.12" y="43.58" width="9.11" height="9.11"/><rect class="cls-1" x="196.12" y="54.45" width="9.11" height="9.11"/><rect class="cls-1" x="196.1" y="65.38" width="9.11" height="9.11"/><rect class="cls-1" x="207.08" y="0.04" width="9.11" height="9.11"/><rect class="cls-1" x="207.09" y="10.94" width="9.11" height="9.11"/><rect class="cls-1" x="207.06" y="21.78" width="9.11" height="9.11"/><rect class="cls-1" x="207.06" y="32.7" width="9.11" height="9.11"/><rect class="cls-1" x="207.06" y="43.57" width="9.11" height="9.11"/><rect class="cls-1" x="207.06" y="54.44" width="9.11" height="9.11"/><rect class="cls-1" x="207.05" y="65.37" width="9.11" height="9.11"/><rect class="cls-1" x="217.94" y="0.04" width="9.11" height="9.11"/><rect class="cls-1" x="217.95" y="10.94" width="9.11" height="9.11"/><rect class="cls-1" x="217.92" y="21.78" width="9.11" height="9.11"/><rect class="cls-1" x="217.92" y="32.7" width="9.11" height="9.11"/><rect class="cls-1" x="217.92" y="43.57" width="9.11" height="9.11"/><rect class="cls-1" x="217.92" y="54.44" width="9.11" height="9.11"/><rect class="cls-1" x="217.91" y="65.37" width="9.11" height="9.11"/><rect class="cls-1" x="228.89" y="0.04" width="9.11" height="9.11"/><rect class="cls-1" x="228.9" y="10.93" width="9.11" height="9.11"/><rect class="cls-1" x="228.87" y="21.77" width="9.11" height="9.11"/><rect class="cls-1" x="228.87" y="32.69" width="9.11" height="9.11"/><rect class="cls-1" x="228.87" y="43.56" width="9.11" height="9.11"/><rect class="cls-1" x="228.87" y="54.44" width="9.11" height="9.11"/><rect class="cls-1" x="228.86" y="65.36" width="9.11" height="9.11"/><rect class="cls-1" x="239.72" y="0.03" width="9.11" height="9.11"/><rect class="cls-1" x="239.73" y="10.92" width="9.11" height="9.11"/><rect class="cls-1" x="239.71" y="21.77" width="9.11" height="9.11"/><rect class="cls-1" x="239.71" y="32.69" width="9.11" height="9.11"/><rect class="cls-1" x="239.71" y="43.55" width="9.11" height="9.11"/><rect class="cls-1" x="239.71" y="54.43" width="9.11" height="9.11"/><rect class="cls-1" x="239.69" y="65.36" width="9.11" height="9.11"/><rect class="cls-1" x="250.67" y="0.02" width="9.11" height="9.11"/><rect class="cls-1" x="250.68" y="10.91" width="9.11" height="9.11"/><rect class="cls-1" x="250.66" y="21.76" width="9.11" height="9.11"/><rect class="cls-1" x="250.66" y="32.68" width="9.11" height="9.11"/><rect class="cls-1" x="250.66" y="43.54" width="9.11" height="9.11"/><rect class="cls-1" x="250.66" y="54.42" width="9.11" height="9.11"/><rect class="cls-1" x="250.64" y="65.35" width="9.11" height="9.11"/><rect class="cls-1" x="261.66" y="0.06" width="9.11" height="9.11"/><rect class="cls-1" x="261.67" y="10.95" width="9.11" height="9.11"/><rect class="cls-1" x="261.65" y="21.8" width="9.11" height="9.11"/><rect class="cls-1" x="261.65" y="32.72" width="9.11" height="9.11"/><rect class="cls-1" x="261.65" y="43.58" width="9.11" height="9.11"/><rect class="cls-1" x="261.65" y="54.46" width="9.11" height="9.11"/><rect class="cls-1" x="261.63" y="65.39" width="9.11" height="9.11"/><rect class="cls-1" x="272.61" y="0.05" width="9.11" height="9.11"/><rect class="cls-1" x="272.62" y="10.94" width="9.11" height="9.11"/><rect class="cls-1" x="272.59" y="21.79" width="9.11" height="9.11"/><rect class="cls-1" x="272.59" y="32.71" width="9.11" height="9.11"/><rect class="cls-1" x="272.59" y="43.57" width="9.11" height="9.11"/><rect class="cls-1" x="272.59" y="54.45" width="9.11" height="9.11"/><rect class="cls-1" x="272.58" y="65.38" width="9.11" height="9.11"/><rect class="cls-1" x="283.47" y="0.05" width="9.11" height="9.11"/><rect class="cls-1" x="283.48" y="10.94" width="9.11" height="9.11"/><rect class="cls-1" x="283.45" y="21.79" width="9.11" height="9.11"/><rect class="cls-1" x="283.45" y="32.71" width="9.11" height="9.11"/><rect class="cls-1" x="283.45" y="43.57" width="9.11" height="9.11"/><rect class="cls-1" x="283.45" y="54.45" width="9.11" height="9.11"/><rect class="cls-1" x="283.44" y="65.38" width="9.11" height="9.11"/><rect class="cls-1" x="294.41" y="0.04" width="9.11" height="9.11"/><rect class="cls-1" x="294.43" y="10.93" width="9.11" height="9.11"/><rect class="cls-1" x="294.4" y="21.78" width="9.11" height="9.11"/><rect class="cls-1" x="294.4" y="32.7" width="9.11" height="9.11"/><rect class="cls-1" x="294.4" y="43.57" width="9.11" height="9.11"/><rect class="cls-1" x="294.4" y="54.44" width="9.11" height="9.11"/><rect class="cls-1" x="294.39" y="65.37" width="9.11" height="9.11"/><rect class="cls-1" x="305.25" y="0.04" width="9.11" height="9.11"/><rect class="cls-1" x="305.26" y="10.93" width="9.11" height="9.11"/><rect class="cls-1" x="305.24" y="21.77" width="9.11" height="9.11"/><rect class="cls-1" x="305.24" y="32.69" width="9.11" height="9.11"/><rect class="cls-1" x="305.24" y="43.56" width="9.11" height="9.11"/><rect class="cls-1" x="305.24" y="54.44" width="9.11" height="9.11"/><rect class="cls-1" x="305.22" y="65.37" width="9.11" height="9.11"/><rect class="cls-1" x="316.2" y="0.03" width="9.11" height="9.11"/><rect class="cls-1" x="316.21" y="10.92" width="9.11" height="9.11"/><rect class="cls-1" x="316.18" y="21.77" width="9.11" height="9.11"/><rect class="cls-1" x="316.18" y="32.68" width="9.11" height="9.11"/><rect class="cls-1" x="316.18" y="43.55" width="9.11" height="9.11"/><rect class="cls-1" x="316.18" y="54.43" width="9.11" height="9.11"/><rect class="cls-1" x="316.17" y="65.36" width="9.11" height="9.11"/><rect class="cls-1" x="327.05" y="0.04" width="9.11" height="9.11"/><rect class="cls-1" x="327.06" y="10.94" width="9.11" height="9.11"/><rect class="cls-1" x="327.03" y="21.78" width="9.11" height="9.11"/><rect class="cls-1" x="327.03" y="32.7" width="9.11" height="9.11"/><rect class="cls-1" x="327.03" y="43.57" width="9.11" height="9.11"/><rect class="cls-1" x="327.03" y="54.44" width="9.11" height="9.11"/><rect class="cls-1" x="327.02" y="65.37" width="9.11" height="9.11"/><rect class="cls-1" x="338" y="0.04" width="9.11" height="9.11"/><rect class="cls-1" x="338.01" y="10.93" width="9.11" height="9.11"/><rect class="cls-1" x="337.98" y="21.77" width="9.11" height="9.11"/><rect class="cls-1" x="337.98" y="32.69" width="9.11" height="9.11"/><rect class="cls-1" x="337.98" y="43.56" width="9.11" height="9.11"/><rect class="cls-1" x="337.98" y="54.44" width="9.11" height="9.11"/><rect class="cls-1" x="337.97" y="65.36" width="9.11" height="9.11"/><rect class="cls-1" x="348.85" y="0.04" width="9.11" height="9.11"/><rect class="cls-1" x="348.87" y="10.93" width="9.11" height="9.11"/><rect class="cls-1" x="348.84" y="21.77" width="9.11" height="9.11"/><rect class="cls-1" x="348.84" y="32.69" width="9.11" height="9.11"/><rect class="cls-1" x="348.84" y="43.56" width="9.11" height="9.11"/><rect class="cls-1" x="348.84" y="54.44" width="9.11" height="9.11"/><rect class="cls-1" x="348.83" y="65.36" width="9.11" height="9.11"/><rect class="cls-1" x="359.8" y="0.03" width="9.11" height="9.11"/><rect class="cls-1" x="359.82" y="10.92" width="9.11" height="9.11"/><rect class="cls-1" x="359.79" y="21.76" width="9.11" height="9.11"/><rect class="cls-1" x="359.79" y="32.68" width="9.11" height="9.11"/><rect class="cls-1" x="359.79" y="43.55" width="9.11" height="9.11"/><rect class="cls-1" x="359.79" y="54.43" width="9.11" height="9.11"/><rect class="cls-1" x="359.78" y="65.35" width="9.11" height="9.11"/><rect class="cls-1" x="370.64" y="0.02" width="9.11" height="9.11"/><rect class="cls-1" x="370.65" y="10.91" width="9.11" height="9.11"/><rect class="cls-1" x="370.62" y="21.76" width="9.11" height="9.11"/><rect class="cls-1" x="370.62" y="32.68" width="9.11" height="9.11"/><rect class="cls-1" x="370.62" y="43.54" width="9.11" height="9.11"/><rect class="cls-1" x="370.62" y="54.42" width="9.11" height="9.11"/><rect class="cls-1" x="370.61" y="65.35" width="9.11" height="9.11"/><rect class="cls-1" x="381.59" y="0.01" width="9.11" height="9.11"/><rect class="cls-1" x="381.6" y="10.9" width="9.11" height="9.11"/><rect class="cls-1" x="381.57" y="21.75" width="9.11" height="9.11"/><rect class="cls-1" x="381.57" y="32.67" width="9.11" height="9.11"/><rect class="cls-1" x="381.57" y="43.54" width="9.11" height="9.11"/><rect class="cls-1" x="381.57" y="54.41" width="9.11" height="9.11"/><rect class="cls-1" x="381.56" y="65.34" width="9.11" height="9.11"/><rect class="cls-1" x="392.14" y="0.06" width="9.11" height="9.11"/><rect class="cls-1" x="392.15" y="10.95" width="9.11" height="9.11"/><rect class="cls-1" x="392.12" y="21.79" width="9.11" height="9.11"/><rect class="cls-1" x="392.12" y="32.71" width="9.11" height="9.11"/><rect class="cls-1" x="392.12" y="43.58" width="9.11" height="9.11"/><rect class="cls-1" x="392.12" y="54.46" width="9.11" height="9.11"/><rect class="cls-1" x="392.11" y="65.38" width="9.11" height="9.11"/><rect class="cls-1" x="403.09" y="0.05" width="9.11" height="9.11"/><rect class="cls-1" x="403.1" y="10.94" width="9.11" height="9.11"/><rect class="cls-1" x="403.07" y="21.78" width="9.11" height="9.11"/><rect class="cls-1" x="403.07" y="32.7" width="9.11" height="9.11"/><rect class="cls-1" x="403.07" y="43.57" width="9.11" height="9.11"/><rect class="cls-1" x="403.07" y="54.45" width="9.11" height="9.11"/><rect class="cls-1" x="403.06" y="65.37" width="9.11" height="9.11"/><rect class="cls-1" x="413.94" y="0.05" width="9.11" height="9.11"/><rect class="cls-1" x="413.96" y="10.94" width="9.11" height="9.11"/><rect class="cls-1" x="413.93" y="21.78" width="9.11" height="9.11"/><rect class="cls-1" x="413.93" y="32.7" width="9.11" height="9.11"/><rect class="cls-1" x="413.93" y="43.57" width="9.11" height="9.11"/><rect class="cls-1" x="413.93" y="54.45" width="9.11" height="9.11"/><rect class="cls-1" x="413.92" y="65.37" width="9.11" height="9.11"/><rect class="cls-1" x="424.89" y="0.04" width="9.11" height="9.11"/><rect class="cls-1" x="424.91" y="10.93" width="9.11" height="9.11"/><rect class="cls-1" x="424.88" y="21.77" width="9.11" height="9.11"/><rect class="cls-1" x="424.88" y="32.69" width="9.11" height="9.11"/><rect class="cls-1" x="424.88" y="43.56" width="9.11" height="9.11"/><rect class="cls-1" x="424.88" y="54.44" width="9.11" height="9.11"/><rect class="cls-1" x="424.87" y="65.37" width="9.11" height="9.11"/><rect class="cls-1" x="435.73" y="0.03" width="9.11" height="9.11"/><rect class="cls-1" x="435.74" y="10.92" width="9.11" height="9.11"/><rect class="cls-1" x="435.71" y="21.77" width="9.11" height="9.11"/><rect class="cls-1" x="435.71" y="32.69" width="9.11" height="9.11"/><rect class="cls-1" x="435.71" y="43.56" width="9.11" height="9.11"/><rect class="cls-1" x="435.71" y="54.43" width="9.11" height="9.11"/><rect class="cls-1" x="435.7" y="65.36" width="9.11" height="9.11"/><rect class="cls-1" x="446.68" y="0.02" width="9.11" height="9.11"/><rect class="cls-1" x="446.69" y="10.92" width="9.11" height="9.11"/><rect class="cls-1" x="446.66" y="21.76" width="9.11" height="9.11"/><rect class="cls-1" x="446.66" y="32.68" width="9.11" height="9.11"/><rect class="cls-1" x="446.66" y="43.55" width="9.11" height="9.11"/><rect class="cls-1" x="446.66" y="54.42" width="9.11" height="9.11"/><rect class="cls-1" x="446.65" y="65.35" width="9.11" height="9.11"/><rect class="cls-1" x="457.49" y="0.03" width="9.11" height="9.11"/><rect class="cls-1" x="457.51" y="10.92" width="9.11" height="9.11"/><rect class="cls-1" x="457.48" y="21.77" width="9.11" height="9.11"/><rect class="cls-1" x="457.48" y="32.69" width="9.11" height="9.11"/><rect class="cls-1" x="457.48" y="43.55" width="9.11" height="9.11"/><rect class="cls-1" x="457.48" y="54.43" width="9.11" height="9.11"/><rect class="cls-1" x="457.47" y="65.36" width="9.11" height="9.11"/><rect class="cls-1" x="468.44" y="0.02" width="9.11" height="9.11"/><rect class="cls-1" x="468.46" y="10.91" width="9.11" height="9.11"/><rect class="cls-1" x="468.43" y="21.76" width="9.11" height="9.11"/><rect class="cls-1" x="468.43" y="32.68" width="9.11" height="9.11"/><rect class="cls-1" x="468.43" y="43.54" width="9.11" height="9.11"/><rect class="cls-1" x="468.43" y="54.42" width="9.11" height="9.11"/><rect class="cls-1" x="468.41" y="65.35" width="9.11" height="9.11"/><rect class="cls-1" x="479.3" y="0.02" width="9.11" height="9.11"/><rect class="cls-1" x="479.31" y="10.91" width="9.11" height="9.11"/><rect class="cls-1" x="479.29" y="21.76" width="9.11" height="9.11"/><rect class="cls-1" x="479.29" y="32.68" width="9.11" height="9.11"/><rect class="cls-1" x="479.29" y="43.54" width="9.11" height="9.11"/><rect class="cls-1" x="479.29" y="54.42" width="9.11" height="9.11"/><rect class="cls-1" x="479.27" y="65.35" width="9.11" height="9.11"/><rect class="cls-1" x="490.25" y="0.01" width="9.11" height="9.11"/><rect class="cls-1" x="490.26" y="10.9" width="9.11" height="9.11"/><rect class="cls-1" x="490.24" y="21.75" width="9.11" height="9.11"/><rect class="cls-1" x="490.24" y="32.67" width="9.11" height="9.11"/><rect class="cls-1" x="490.24" y="43.54" width="9.11" height="9.11"/><rect class="cls-1" x="490.24" y="54.41" width="9.11" height="9.11"/><rect class="cls-1" x="490.22" y="65.34" width="9.11" height="9.11"/><rect class="cls-1" x="501.08" y="0.01" width="9.11" height="9.11"/><rect class="cls-1" x="501.1" y="10.9" width="9.11" height="9.11"/><rect class="cls-1" x="501.07" y="21.75" width="9.11" height="9.11"/><rect class="cls-1" x="501.07" y="32.66" width="9.11" height="9.11"/><rect class="cls-1" x="501.07" y="43.53" width="9.11" height="9.11"/><rect class="cls-1" x="501.07" y="54.41" width="9.11" height="9.11"/><rect class="cls-1" x="501.06" y="65.34" width="9.11" height="9.11"/><rect class="cls-1" x="512.03" width="9.11" height="9.11"/><rect class="cls-1" x="512.05" y="10.89" width="9.11" height="9.11"/><rect class="cls-1" x="512.02" y="21.74" width="9.11" height="9.11"/><rect class="cls-1" x="512.02" y="32.65" width="9.11" height="9.11"/><rect class="cls-1" x="512.02" y="43.52" width="9.11" height="9.11"/><rect class="cls-1" x="512.02" y="54.4" width="9.11" height="9.11"/><rect class="cls-1" x="512.01" y="65.33" width="9.11" height="9.11"/><rect class="cls-1" x="523.05" y="0.06" width="9.11" height="9.11"/><rect class="cls-1" x="523.06" y="10.95" width="9.11" height="9.11"/><rect class="cls-1" x="523.03" y="21.8" width="9.11" height="9.11"/><rect class="cls-1" x="523.03" y="32.72" width="9.11" height="9.11"/><rect class="cls-1" x="523.03" y="43.59" width="9.11" height="9.11"/><rect class="cls-1" x="523.03" y="54.46" width="9.11" height="9.11"/><rect class="cls-1" x="523.02" y="65.39" width="9.11" height="9.11"/><rect class="cls-1" x="534" y="0.05" width="9.11" height="9.11"/><rect class="cls-1" x="534.01" y="10.94" width="9.11" height="9.11"/><rect class="cls-1" x="533.98" y="21.79" width="9.11" height="9.11"/><rect class="cls-1" x="533.98" y="32.71" width="9.11" height="9.11"/><rect class="cls-1" x="533.98" y="43.58" width="9.11" height="9.11"/><rect class="cls-1" x="533.98" y="54.45" width="9.11" height="9.11"/><rect class="cls-1" x="533.97" y="65.38" width="9.11" height="9.11"/><rect class="cls-1" x="544.85" y="0.05" width="9.11" height="9.11"/><rect class="cls-1" x="544.87" y="10.94" width="9.11" height="9.11"/><rect class="cls-1" x="544.84" y="21.79" width="9.11" height="9.11"/><rect class="cls-1" x="544.84" y="32.71" width="9.11" height="9.11"/><rect class="cls-1" x="544.84" y="43.58" width="9.11" height="9.11"/><rect class="cls-1" x="544.84" y="54.45" width="9.11" height="9.11"/><rect class="cls-1" x="544.83" y="65.38" width="9.11" height="9.11"/><rect class="cls-1" x="555.8" y="0.04" width="9.11" height="9.11"/><rect class="cls-1" x="555.82" y="10.94" width="9.11" height="9.11"/><rect class="cls-1" x="555.79" y="21.78" width="9.11" height="9.11"/><rect class="cls-1" x="555.79" y="32.7" width="9.11" height="9.11"/><rect class="cls-1" x="555.79" y="43.57" width="9.11" height="9.11"/><rect class="cls-1" x="555.79" y="54.44" width="9.11" height="9.11"/><rect class="cls-1" x="555.78" y="65.37" width="9.11" height="9.11"/><rect class="cls-1" x="566.64" y="0.04" width="9.11" height="9.11"/><rect class="cls-1" x="566.65" y="10.93" width="9.11" height="9.11"/><rect class="cls-1" x="566.62" y="21.78" width="9.11" height="9.11"/><rect class="cls-1" x="566.62" y="32.7" width="9.11" height="9.11"/><rect class="cls-1" x="566.62" y="43.56" width="9.11" height="9.11"/></g></g></svg>