<svg xmlns="http://www.w3.org/2000/svg" viewBox="0 0 99.84 99.69"><defs><style>.cls-1{fill:#fff;}</style></defs><title>Exit</title><g id="Layer_2" data-name="Layer 2"><g id="Layer_1-2" data-name="Layer 1"><polygon class="cls-1" points="0.86 88.63 39.57 49.92 0.71 11.06 11.06 0.71 49.92 39.57 88.79 0.71 99.14 11.06 60.27 49.92 98.98 88.63 88.63 98.98 49.92 60.27 11.21 98.98 0.86 88.63"/><path class="cls-1" d="M11.06,1.41,49.22,39.57l.71.71.71-.71L88.79,1.41l9.64,9.64L60.27,49.21l-.71.71.71.71,38,38-9.64,9.64-38-38-.71-.71-.71.71-38,38L1.57,88.63l38-38,.71-.71-.71-.71L1.41,11.06l9.64-9.64M88.79,0,49.92,38.87,11.06,0,0,11.06,38.87,49.92.16,88.63,11.21,99.69,49.92,61,88.63,99.69,99.69,88.63,61,49.92,99.84,11.06,88.79,0Z"/></g></g></svg>